<?xml version="1.0" encoding="UTF-8"?>
<svg id="Layer_1" data-name="Layer 1" xmlns="http://www.w3.org/2000/svg" viewBox="0 0 957.5 165.48">
  <defs>
    <style>
      .cls-1 {
        fill: #c1272d;
      }

      .cls-1, .cls-2, .cls-3 {
        stroke-width: 0px;
      }

      .cls-2 {
        fill: #c04d2a;
      }

      .cls-3 {
        fill: #2f3a2f;
      }
    </style>
  </defs>
  <path class="cls-3" d="M456.48,147.7c-7.93,1.08-15.85,2.16-23.8,3.24-2.97.41-7.07,2.2-10.01,1.22.01-.14.04-.27.08-.41h.01c.44-.64.86-1.32,1.52-1.71.12-.06.23-.12.36-.16.45-.16.89-.33.99-.86.1-.55-.16-1.13-.53-1.53-.25-.29-.57-.55-.93-.75-.72-.39-1.58-.59-2.34-.45-.89.16-1.38.86-1.69,1.65-.03.08-.06.15-.08.23-.49,1.27-.93,2.61-1.01,3.97-.2.42-.43.71-.72.76-1.43.26-2.9.66-4.35.73-1.46.07-5-.73-2.92-2.94,1.29-1.37,2.27-2.89,2.72-4.41.45-1.54,1.74-3.31,3.11-3.98,2.6-1.27,3.68-2.9,3.27-5.68-.81-5.47,1.81-8.9,6.54-11.21,3.2-1.56,5.23-4.24,6.28-7.56-2.63-.63-5.63-.43-6.78-1.78-4.32-5.12-6.67-11.24-6.93-18.1-.05-.97-1.18-2.34-2.13-2.75-2.18-.94-4.55-1.49-6.87-2.04-.82-.19-1.7-.17-2.47.16-2.32.98-7.42-1.81-7.23-4.24.19-2.14-.88-2.7-2.51-2.79-2.96-.15-6.01.27-8.85-.33-2.92-.63-4.54.83-6.36,2.4-1.42,1.22-2.72,2.67-4.31,3.62-6.8,4.07-8.83,15.54-1.75,21.32.96.79,2.37,1.21,3.63,1.4,4.63.68,9.83-1.16,12.41,2.25.84,4.07,1.46,6.8,1.95,9.55.54,3.02,1.44,6.05-1.06,8.79-.6.66-.89,2-.73,2.92.48,2.85,1.08,5.68,1.75,8.49.56,2.39,2.13,5.65,1.24,8.06-.72,1.96-3.08,1.76-4.85,2.01-6.41.87-12.85,1.58-19.28,2.44-11.6,1.57-23.22,3.12-34.83,4.69-.28.03-.57.05-.85.07-3.65-.02-5.44-3.08-3.93-6.84,4.07-10.16,8.21-20.29,12.28-30.45,10.68-26.71,21.31-53.42,32-80.13,5.15-12.86,10.32-25.71,15.63-38.52.49-1.18,2.01-2.66,3.07-2.67,1.04-.03,2.58,1.42,3.11,2.59,11.82,25.6,23.53,51.25,35.27,76.89,7.81,17.08,15.62,34.16,23.46,51.22.86,1.89,1.88,3.7,2.77,5.57,1.51,3.19.12,5.58-3.35,6.05Z"/>
  <path class="cls-2" d="M220.39,0c13.51.03,26.91,1.31,40.31,2.55,22.6,2.09,30.54,17.12,18.79,36.59-17,28.15-37.14,54.21-55.47,81.49-1.27,1.9-2.42,3.88-3.7,5.77-2.64,3.86-1.7,5.63,3.03,5.61,9.74-.04,19.49-.3,29.22.15,11.58.53,17.69,6.42,17.15,15.93-.37,6.59-3.22,11.28-10.26,12.96-11.26,2.68-22.7,2.72-34.15,2.82-11.45.1-22.93.66-34.3-1.31-16.96-2.93-22.37-11.64-17.63-28.05,4.42-15.3,12.69-28.66,21.17-41.9,11.11-17.35,23.64-33.68,36.12-50.06,1.43-1.88,4.49-3.75,2.89-6.41-1.2-2-4.22-.84-6.42-.87-11.17-.18-22.36.13-33.5-.44-11.27-.58-15.6-5.63-15.89-17.06-.27-10.44,3.28-15.01,14.37-16.31,9.36-1.1,18.85-1.02,28.29-1.46Z"/>
  <path class="cls-2" d="M0,81.94c.72-20.55-.87-41.16,1.64-61.67C3.26,7.11,6.72,3.45,19.74,1.69c14.94-2.01,29.77-.82,44.25,3.14,23.31,6.37,34.92,21.72,33.92,44.04-.96,21.32-13.46,34.64-37.19,39.4-4.48.9-9.06,1.36-13.61,1.8-11.26,1.1-14.69,4.32-14.69,15.71,0,7.39,1.32,14.78,1.76,22.18.4,6.84.67,13.7.54,20.55-.25,12.54-3.98,16.5-15.31,16.94-10.47.41-15.75-4.32-17.34-15.86C-1.03,127.12.7,104.5,0,81.94Z"/>
  <path class="cls-2" d="M160.1,108.76c0,11.71.17,23.42-.04,35.13-.25,13.41-4.96,19.15-16,20.16-15.29,1.4-22.84-3.14-24.75-16.99-3.68-26.69-3.37-53.53-.36-80.3.94-8.38,6.11-12.55,14.51-12.75,3.15-.08,6.3-.19,9.45-.05,11.22.49,16.82,5.78,17.16,17.1.37,12.56.08,25.13.08,37.7h-.05Z"/>
  <path class="cls-2" d="M81.79,163.98c-15.09-.07-22.57-5.14-27.99-19.25-3.8-9.9-5.96-20.23-7.39-30.72-1.12-8.21,2.04-12.78,10.44-14.63,15.33-3.37,25.48.22,33.9,13.42,4.94,7.74,8.61,16.13,11.01,25.01,4.9,18.13-1.32,26.25-19.98,26.17Z"/>
  <path class="cls-2" d="M137.73.4c17.57,0,25.64,9.09,21.21,23.61-1.6,5.22-4.92,8.42-10.01,9.49-4.17.88-8.52,1.27-12.79,1.31-15.69.13-23.01-9.88-18.41-24.89,2.12-6.92,7.57-9.52,20-9.51Z"/>
  <path class="cls-1" d="M315.44,151.2c.02,8.58-6.37,14.35-15.78,14.28-8.37-.06-13.79-5.56-13.9-14.12-.12-8.88,6.13-14.95,15.23-14.78,8.78.16,14.44,5.9,14.46,14.62Z"/>
  <path class="cls-3" d="M622.69,95.19c2.12,3.08,4,5.87,5.94,8.63,9.94,14.13,19.92,28.23,29.79,42.4.64.93,1.01,2.69.55,3.56-.46.87-2.11,1.52-3.26,1.55-8.31.22-16.62.21-24.92.37-3.77.07-7.54.3-11.31.57-4.25.31-5.26-.54-6.04-4.74-2.59-14.01-5.27-28.01-7.9-42.01-.24-1.3-.34-2.62-.57-3.92-.27-1.5-.44-3.05-2.6-3.04-2.21,0-2.58,1.54-2.86,3.18-.74,4.37-1.54,8.74-2.18,13.13-1.65,11.3-3.25,22.6-4.84,33.9-.43,3.02-1.72,4.3-4.57,4.26-7.08-.08-14.16-.16-21.24-.31-3.52-.08-4.88-1.87-4.42-5.34,2.58-19.65,5.26-39.28,7.65-58.96,2.84-23.42,5.43-46.87,8.13-70.31.4-3.49,2.72-6.15,5.98-6.1,16.77.25,33.13,2.42,47.95,11.11,14.21,8.34,20.07,21.15,19.01,37.14-1.08,16.37-10.27,27.08-24.98,33.47-1,.44-2,.88-3.31,1.46Z"/>
  <path class="cls-3" d="M553.33,80.11c.09,1.77.21,4.5.38,7.23.21,3.42-1.3,5.15-4.66,5.35-14.41.85-28.82,1.77-43.23,2.54-2.63.14-3.77,1.05-3.51,3.76,1.27,12.76,2.45,25.53,3.74,38.3.34,3.37.97,6.72,1.42,10.08.51,3.83-.92,5.45-4.74,5.63-6.78.31-13.57.64-20.35,1.01-4.39.24-5.86-1.09-6.53-5.46-3.67-23.87-7.37-47.73-11.15-71.58-.91-5.74.22-7.1,5.93-7.39,19.22-.96,38.43-2.05,57.65-3.12,6.59-.37,13.18-.86,19.77-1.22,3.32-.18,5.17,1.53,5.27,4.85.09,3.02.02,6.04.02,10.03Z"/>
  <path class="cls-3" d="M672.13,130.95c.34-22.73,1.22-45.71,1.6-68.46.06-3.34,1.33-4.64,4.6-4.66,5.47-.03,10.95-.04,16.42-.01,3.24.02,4.45,1.35,4.76,4.62,2.43,26.09,4.89,52.18,7.36,78.26.24,2.53.63,5.05.83,7.59.3,3.72-1.33,5.57-4.99,5.58-8.48.02-16.96.02-25.44-.06-4-.03-5.29-1.48-5.29-5.6,0-5.73.06-11.49.14-17.26Z"/>
  <path class="cls-3" d="M552.94,42.71c-.12,1.85-.62,3.53-1.93,4.67-1.9,1.64-5.26,1.39-7.62,1.65-3.64.39-7.32.54-10.97.71-7.34.33-14.69.44-22.03.84-12.79.69-25.59,1.39-38.38,2.08-1.88.1-3.76.38-5.64.45-3.09.12-4.62-1.22-4.87-4.22-.44-5.27-.9-10.53-1.22-15.79-.13-2.3.83-4.07,3.34-4.53,13.16-2.43,26.33-4.83,39.49-7.3,13.81-2.59,27.6-5.28,41.42-7.83,4.86-.89,7.75,1.33,7.87,6.27.13,5.01.11,10.01.1,15.02,0,2.19.62,5.27.44,7.99Z"/>
  <path class="cls-3" d="M686.64,12.47c8.09.04,14.48,6.61,14.53,14.94.05,7.85-7.01,14.91-14.82,14.84-7.95-.07-14.43-6.68-14.44-14.74-.01-8.38,6.55-15.08,14.73-15.04Z"/>
  <path class="cls-3" d="M777.27,32.79c13.98.46,28.32,5.05,38.57,17.93,16.22,20.38,10.29,49.49-12.49,62.37-11.59,6.56-23.61,7.62-35.59.86-15.6-8.8-17.76-30.19-4.14-41.46,7.17-5.93,15.38-6.88,23.95-3.45,6.1,2.44,9.6,9.08,8.53,15.37-1.39,8.14-6.39,13.19-13.57,13.74-6.75.51-12-5.2-9.63-10.63.6-1.37,1.82-2.74,3.12-3.46.88-.48,2.58-.13,3.54.46.55.34.63,1.97.41,2.9-.47,1.96.18,3.03,2.31,3.01,2.87-.03,4.14-2,4.9-4.35.88-2.71-.46-5.64-3.12-7.22-5.46-3.23-13.32-1.04-16.52,4.62-5.03,8.88-.03,19.3,10.35,21.56,14.08,3.07,27.97-8.49,28.69-22.83.86-17.2-16.77-31.97-36.25-26.88-15.38,4.02-23.53,14.88-27.01,29.76-4.63,19.8,8.12,47.46,38.11,50.93,13.33,1.54,25.16-2.64,35.86-10.36,3.89-2.8,6.1-2.49,8.53,1.52,1.66,2.74,3.34,5.48,5.03,8.2,1.94,3.11,1.58,5.55-1.36,7.55-11.63,7.94-24.15,13.49-38.38,14.84-20.98,1.99-39.17-3.88-53.44-19.57-12.32-13.56-17.61-29.9-16.57-48.22.73-12.85,4.71-24.65,12.37-35.02,10.35-14.01,24.33-21.38,43.79-22.18Z"/>
  <path class="cls-3" d="M956.92,149.48c-12.56-34.01-25.16-67.99-37.67-102.01-4.05-10.98-7.81-22.07-11.83-33.07-.34-.94-1.54-2.13-2.4-2.18-.91-.04-1.97,1.06-2.81,1.82-.44.41-.55,1.18-.8,1.79-15.07,36.16-30.14,72.32-45.23,108.48-3.7,8.87-7.51,17.71-11.25,26.58-1.62,3.87-.25,6.6,3.48,6.73,7.16.25,14.33.39,21.51.49,3.18.05,4.5-1.12,5.37-4.28.6-2.19,1.32-4.35,1.86-6.53.6-2.46,1.75-3.27,4.43-2.74,15.37,3.07,30.77,5.95,46.17,8.84,7.78,1.46,15.59,2.8,22.9,4.08.36.07.73.11,1.1.1,4.81-.09,6.85-3.57,5.17-8.1ZM909.38,121.13l-12.89-2.93c-3.79-.87-5.98-4.86-4.67-8.52l6.2-17.3c2.09-5.81,10.34-5.71,12.28.15l6.69,20.24c1.59,4.79-2.68,9.49-7.61,8.36Z"/>
  <path class="cls-3" d="M822.48,36.5c-5.15.01-8.79-3.71-8.77-8.98.01-4.9,3.85-8.8,8.72-8.88,5.09-.08,9.11,3.77,9.14,8.74.03,5.15-3.91,9.1-9.09,9.11Z"/>
  <path class="cls-3" d="M773.72,14.25c.06-5.06,3.8-8.89,8.67-8.87,5.22.02,9.02,3.92,8.98,9.22-.04,4.7-4.16,8.76-8.92,8.76-4.98,0-8.79-3.97-8.73-9.11Z"/>
  <path class="cls-3" d="M833.86,61.23c.12-5.26,3.88-8.87,9.04-8.7,4.89.17,8.43,4,8.24,8.92-.18,4.54-4.18,8.41-8.67,8.36-4.95-.05-8.72-3.82-8.62-8.59Z"/>
  <path class="cls-3" d="M841.19,90.4c4.73-.05,8.49,3.64,8.47,8.32-.02,4.72-3.68,8.34-8.45,8.36-4.62.02-8.25-3.37-8.35-7.78-.11-5.45,3.06-8.84,8.32-8.9Z"/>
</svg>